<svg width="234" height="42" viewBox="0 0 234 42" fill="none" xmlns="http://www.w3.org/2000/svg">
<g clip-path="url(#clip0_1140_3915)">
<path d="M39.7048 28.4605C48.3983 23.5829 59.3977 26.6028 64.3819 35.2358L56.8809 39.5665C48.1477 44.6083 36.978 41.5534 32.0271 32.768L39.7048 28.4605Z" fill="#FF6665" fill-opacity="0.8"/>
<path d="M36.5243 25.041C41.4904 16.4393 52.4898 13.4921 61.0915 18.4584L56.5957 26.2461C51.6291 34.8478 40.6301 37.7952 32.0284 32.8286L36.5243 25.041Z" fill="#FF6665" fill-opacity="0.8"/>
<path d="M31.6394 24.208C31.6394 13.7755 40.0966 5.31836 50.5288 5.31836V14.1335C50.5288 24.5657 42.0716 33.0229 31.6394 33.0229V24.208Z" fill="#FF6665" fill-opacity="0.8"/>
<path d="M27.1828 24.5672C22.2165 15.9655 25.1635 4.96629 33.7657 0L38.2615 7.78754C43.2281 16.3894 40.2808 27.3886 31.6791 32.3548L27.1828 24.5672Z" fill="#FF6665" fill-opacity="0.8"/>
<path d="M31.6394 22.9486C31.6394 13.2117 23.7461 5.31836 14.0093 5.31836V15.3928C14.0093 25.1297 21.9026 33.0229 31.6394 33.0229V22.9486Z" fill="#FF6665" fill-opacity="0.8"/>
<path d="M27.8446 25.041C22.8785 16.4393 11.8791 13.4921 3.27722 18.4584L7.77334 26.2461C12.7396 34.8478 23.7388 37.7952 32.3405 32.8286L27.8446 25.041Z" fill="#FF6665" fill-opacity="0.8"/>
<path d="M24.6637 28.4605C15.9704 23.5829 4.97105 26.6028 -0.0130615 35.2358L7.48768 39.5665C16.2211 44.6083 27.3909 41.5534 32.3418 32.768L24.6637 28.4605Z" fill="#FF6665" fill-opacity="0.8"/>
<path d="M96.4361 12.0977V31.6204H92.5204V18.9223L87.2898 31.6204H84.3249L79.0666 18.9223V31.6204H75.1509V12.0977H79.5983L85.8073 26.6141L92.0169 12.0977H96.4361Z" fill="#282322"/>
<path d="M101.175 14.2794C100.485 14.2794 99.9065 14.065 99.4404 13.6361C98.9931 13.1886 98.7693 12.6385 98.7693 11.9859C98.7693 11.3333 98.9931 10.7926 99.4404 10.3636C99.9065 9.91614 100.485 9.69238 101.175 9.69238C101.864 9.69238 102.433 9.91614 102.881 10.3636C103.347 10.7926 103.58 11.3333 103.58 11.9859C103.58 12.6385 103.347 13.1886 102.881 13.6361C102.433 14.065 101.864 14.2794 101.175 14.2794ZM103.105 16.1254V31.6205H99.1888V16.1254H103.105Z" fill="#282322"/>
<path d="M114.441 15.9014C116.287 15.9014 117.779 16.4887 118.916 17.6635C120.054 18.8196 120.623 20.4418 120.623 22.5302V31.6202H116.707V23.0617C116.707 21.831 116.399 20.8894 115.784 20.2367C115.169 19.5654 114.329 19.2298 113.267 19.2298C112.185 19.2298 111.327 19.5654 110.693 20.2367C110.078 20.8894 109.77 21.831 109.77 23.0617V31.6202H105.854V16.1251H109.77V18.055C110.292 17.3838 110.954 16.8617 111.756 16.4887C112.577 16.0972 113.471 15.9014 114.441 15.9014Z" fill="#282322"/>
<path d="M122.22 23.8171C122.22 22.2506 122.528 20.8615 123.144 19.6494C123.778 18.4374 124.635 17.5051 125.717 16.8525C126.798 16.1998 128.001 15.8735 129.325 15.8735C130.332 15.8735 131.292 16.0973 132.206 16.5448C133.12 16.9737 133.847 17.5517 134.388 18.2789V10.9229H138.359V31.6203H134.388V29.3269C133.902 30.0917 133.222 30.7069 132.346 31.1731C131.469 31.6392 130.453 31.8723 129.297 31.8723C127.992 31.8723 126.798 31.5368 125.717 30.8652C124.635 30.1942 123.778 29.2526 123.144 28.0406C122.528 26.8097 122.22 25.402 122.22 23.8171ZM134.415 23.8729C134.415 22.9219 134.229 22.1108 133.856 21.4395C133.483 20.7496 132.98 20.2275 132.346 19.8732C131.712 19.5003 131.031 19.3138 130.304 19.3138C129.576 19.3138 128.905 19.4909 128.29 19.8452C127.674 20.1995 127.171 20.7216 126.78 21.4115C126.407 22.0828 126.22 22.8846 126.22 23.8171C126.22 24.7494 126.407 25.5695 126.78 26.2785C127.171 26.968 127.674 27.4997 128.29 27.8726C128.924 28.2455 129.595 28.432 130.304 28.432C131.031 28.432 131.712 28.2548 132.346 27.9003C132.98 27.5274 133.483 27.0054 133.856 26.3343C134.229 25.6443 134.415 24.8237 134.415 23.8729Z" fill="#282322"/>
<path d="M148.169 19.3416H145.456V31.6201H141.484V19.3416H139.722V16.125H141.484V15.3419C141.484 13.4399 142.025 12.0414 143.106 11.1464C144.188 10.2513 145.82 9.83181 148.001 9.88775V13.1882C147.05 13.1696 146.388 13.3281 146.015 13.6637C145.643 13.9993 145.456 14.6053 145.456 15.4817V16.125H148.169V19.3416Z" fill="#282322"/>
<path d="M164.216 16.125V31.6201H160.272V29.6622C159.769 30.3338 159.107 30.865 158.286 31.2569C157.485 31.6298 156.608 31.8162 155.658 31.8162C154.446 31.8162 153.373 31.5642 152.441 31.0607C151.509 30.5387 150.772 29.7836 150.231 28.7955C149.709 27.7884 149.448 26.5949 149.448 25.2153V16.125H153.364V24.6559C153.364 25.8864 153.672 26.8376 154.287 27.5087C154.902 28.1613 155.742 28.4876 156.804 28.4876C157.886 28.4876 158.734 28.1613 159.349 27.5087C159.965 26.8376 160.272 25.8864 160.272 24.6559V16.125H164.216Z" fill="#282322"/>
<path d="M170.877 10.9229V31.6203H166.961V10.9229H170.877Z" fill="#282322"/>
<path d="M182.214 15.9014C184.06 15.9014 185.551 16.4887 186.689 17.6635C187.826 18.8196 188.395 20.4418 188.395 22.5302V31.6202H184.479V23.0617C184.479 21.831 184.171 20.8894 183.556 20.2367C182.941 19.5654 182.102 19.2298 181.039 19.2298C179.957 19.2298 179.1 19.5654 178.465 20.2367C177.85 20.8894 177.543 21.831 177.543 23.0617V31.6202H173.627V16.1251H177.543V18.055C178.065 17.3838 178.727 16.8617 179.528 16.4887C180.349 16.0972 181.244 15.9014 182.214 15.9014Z" fill="#282322"/>
<path d="M205.404 23.5379C205.404 24.0973 205.367 24.6008 205.292 25.0481H193.965C194.058 26.1668 194.449 27.0433 195.139 27.6775C195.829 28.3111 196.678 28.6282 197.685 28.6282C199.139 28.6282 200.174 28.0038 200.789 26.7544H205.013C204.565 28.2461 203.707 29.4765 202.44 30.4462C201.172 31.3975 199.614 31.8728 197.768 31.8728C196.277 31.8728 194.934 31.5465 193.741 30.8939C192.566 30.2224 191.643 29.2808 190.972 28.0688C190.319 26.8568 189.993 25.4584 189.993 23.8735C189.993 22.2698 190.319 20.862 190.972 19.65C191.624 18.4379 192.538 17.5056 193.713 16.853C194.887 16.2003 196.24 15.874 197.768 15.874C199.242 15.874 200.556 16.191 201.712 16.825C202.887 17.459 203.791 18.3633 204.426 19.5381C205.078 20.6941 205.404 22.0274 205.404 23.5379ZM201.348 22.419C201.33 21.4121 200.966 20.6102 200.258 20.0136C199.549 19.3982 198.682 19.0906 197.657 19.0906C196.687 19.0906 195.866 19.3889 195.195 19.9856C194.543 20.5636 194.142 21.3748 193.992 22.419H201.348Z" fill="#282322"/>
<path d="M213.073 31.8728C211.805 31.8728 210.668 31.649 209.661 31.2013C208.654 30.7351 207.852 30.1107 207.256 29.3275C206.677 28.5442 206.36 27.6775 206.304 26.7262H210.248C210.323 27.323 210.612 27.8173 211.116 28.2087C211.638 28.6005 212.281 28.7962 213.045 28.7962C213.791 28.7962 214.369 28.6471 214.779 28.3485C215.208 28.0504 215.423 27.6678 215.423 27.2016C215.423 26.6985 215.162 26.3256 214.639 26.0828C214.136 25.8221 213.325 25.5424 212.206 25.2438C211.05 24.9641 210.099 24.6751 209.353 24.377C208.626 24.0784 207.992 23.6215 207.451 23.0064C206.929 22.391 206.668 21.5612 206.668 20.517C206.668 19.6593 206.91 18.8761 207.396 18.1675C207.899 17.459 208.608 16.8996 209.521 16.4893C210.453 16.0791 211.544 15.874 212.794 15.874C214.639 15.874 216.113 16.3402 217.213 17.2725C218.313 18.1862 218.919 19.4262 219.031 20.9925H215.283C215.227 20.3772 214.966 19.8924 214.5 19.5381C214.052 19.1652 213.446 18.9787 212.682 18.9787C211.973 18.9787 211.423 19.1092 211.032 19.3703C210.659 19.6313 210.472 19.9949 210.472 20.4611C210.472 20.9832 210.733 21.3841 211.255 21.6638C211.777 21.9248 212.588 22.1952 213.689 22.4749C214.807 22.7546 215.73 23.0437 216.457 23.3418C217.185 23.6404 217.81 24.1065 218.332 24.7407C218.872 25.3559 219.152 26.1761 219.171 27.2016C219.171 28.097 218.919 28.8987 218.416 29.6071C217.931 30.3156 217.222 30.875 216.29 31.2853C215.376 31.6771 214.304 31.8728 213.073 31.8728Z" fill="#282322"/>
<path d="M227.196 31.8728C225.928 31.8728 224.79 31.649 223.783 31.2013C222.777 30.7351 221.975 30.1107 221.378 29.3275C220.8 28.5442 220.483 27.6775 220.427 26.7262H224.371C224.446 27.323 224.735 27.8173 225.238 28.2087C225.76 28.6005 226.403 28.7962 227.168 28.7962C227.914 28.7962 228.492 28.6471 228.902 28.3485C229.331 28.0504 229.545 27.6678 229.545 27.2016C229.545 26.6985 229.284 26.3256 228.762 26.0828C228.258 25.8221 227.447 25.5424 226.329 25.2438C225.173 24.9641 224.222 24.6751 223.476 24.377C222.749 24.0784 222.114 23.6215 221.574 23.0064C221.052 22.391 220.791 21.5612 220.791 20.517C220.791 19.6593 221.033 18.8761 221.518 18.1675C222.021 17.459 222.73 16.8996 223.643 16.4893C224.576 16.0791 225.667 15.874 226.916 15.874C228.762 15.874 230.235 16.3402 231.335 17.2725C232.435 18.1862 233.041 19.4262 233.153 20.9925H229.405C229.349 20.3772 229.088 19.8924 228.622 19.5381C228.175 19.1652 227.569 18.9787 226.804 18.9787C226.096 18.9787 225.545 19.1092 225.154 19.3703C224.781 19.6313 224.595 19.9949 224.595 20.4611C224.595 20.9832 224.855 21.3841 225.378 21.6638C225.9 21.9248 226.711 22.1952 227.811 22.4749C228.93 22.7546 229.853 23.0437 230.58 23.3418C231.307 23.6404 231.932 24.1065 232.454 24.7407C232.995 25.3559 233.274 26.1761 233.293 27.2016C233.293 28.097 233.041 28.8987 232.538 29.6071C232.053 30.3156 231.345 30.875 230.412 31.2853C229.499 31.6771 228.426 31.8728 227.196 31.8728Z" fill="#282322"/>
</g>
<defs>
<clipPath id="clip0_1140_3915">
<rect width="233.077" height="42" fill="white"/>
</clipPath>
</defs>
</svg>
